<mxfile host="www.draw.io" modified="2019-11-28T07:34:27.921Z" agent="Mozilla/5.0 (Windows NT 10.0; WOW64) AppleWebKit/537.36 (KHTML, like Gecko) Chrome/74.0.3729.131 Safari/537.36" etag="T_X3784_RSBjlyO8kA5a" version="12.3.2" type="github" pages="1">
  <diagram id="B5zunyUqvBXYCdQxp3WS" name="Page-1">
    <mxGraphModel dx="1360" dy="802" grid="1" gridSize="10" guides="1" tooltips="1" connect="1" arrows="1" fold="1" page="1" pageScale="1" pageWidth="3300" pageHeight="4681" math="0" shadow="0">
      <root>
        <mxCell id="0"/>
        <mxCell id="1" parent="0"/>
        <mxCell id="dGBUTptpqReODm5c73dv-14" style="edgeStyle=orthogonalEdgeStyle;rounded=0;orthogonalLoop=1;jettySize=auto;html=1;exitX=0.5;exitY=1;exitDx=0;exitDy=0;entryX=0.5;entryY=0;entryDx=0;entryDy=0;" edge="1" parent="1" source="dGBUTptpqReODm5c73dv-1" target="dGBUTptpqReODm5c73dv-2">
          <mxGeometry relative="1" as="geometry"/>
        </mxCell>
        <mxCell id="dGBUTptpqReODm5c73dv-1" value="登陆设备，给/app目录赋&amp;nbsp;读写权限" style="rounded=0;whiteSpace=wrap;html=1;" vertex="1" parent="1">
          <mxGeometry x="210" y="150" width="120" height="60" as="geometry"/>
        </mxCell>
        <mxCell id="dGBUTptpqReODm5c73dv-15" style="edgeStyle=orthogonalEdgeStyle;rounded=0;orthogonalLoop=1;jettySize=auto;html=1;exitX=0.5;exitY=1;exitDx=0;exitDy=0;entryX=0.5;entryY=0;entryDx=0;entryDy=0;" edge="1" parent="1" source="dGBUTptpqReODm5c73dv-2" target="dGBUTptpqReODm5c73dv-3">
          <mxGeometry relative="1" as="geometry"/>
        </mxCell>
        <mxCell id="dGBUTptpqReODm5c73dv-2" value="备份srv_trx.conf文件" style="rounded=0;whiteSpace=wrap;html=1;" vertex="1" parent="1">
          <mxGeometry x="210" y="250" width="120" height="60" as="geometry"/>
        </mxCell>
        <mxCell id="dGBUTptpqReODm5c73dv-16" style="edgeStyle=orthogonalEdgeStyle;rounded=0;orthogonalLoop=1;jettySize=auto;html=1;exitX=0.5;exitY=1;exitDx=0;exitDy=0;entryX=0.5;entryY=0;entryDx=0;entryDy=0;" edge="1" parent="1" source="dGBUTptpqReODm5c73dv-3" target="dGBUTptpqReODm5c73dv-4">
          <mxGeometry relative="1" as="geometry"/>
        </mxCell>
        <mxCell id="dGBUTptpqReODm5c73dv-3" value="给/app目录md5加密" style="rounded=0;whiteSpace=wrap;html=1;" vertex="1" parent="1">
          <mxGeometry x="210" y="350" width="120" height="60" as="geometry"/>
        </mxCell>
        <mxCell id="dGBUTptpqReODm5c73dv-17" style="edgeStyle=orthogonalEdgeStyle;rounded=0;orthogonalLoop=1;jettySize=auto;html=1;exitX=0.5;exitY=1;exitDx=0;exitDy=0;entryX=0.5;entryY=0;entryDx=0;entryDy=0;" edge="1" parent="1" source="dGBUTptpqReODm5c73dv-4" target="dGBUTptpqReODm5c73dv-5">
          <mxGeometry relative="1" as="geometry">
            <Array as="points">
              <mxPoint x="270" y="520"/>
              <mxPoint x="170" y="520"/>
            </Array>
          </mxGeometry>
        </mxCell>
        <mxCell id="dGBUTptpqReODm5c73dv-20" style="edgeStyle=orthogonalEdgeStyle;rounded=0;orthogonalLoop=1;jettySize=auto;html=1;exitX=0.5;exitY=1;exitDx=0;exitDy=0;entryX=0.5;entryY=0;entryDx=0;entryDy=0;" edge="1" parent="1" source="dGBUTptpqReODm5c73dv-4" target="dGBUTptpqReODm5c73dv-7">
          <mxGeometry relative="1" as="geometry"/>
        </mxCell>
        <mxCell id="dGBUTptpqReODm5c73dv-4" value="开站工具-基本配置修改参数" style="rounded=0;whiteSpace=wrap;html=1;" vertex="1" parent="1">
          <mxGeometry x="210" y="450" width="120" height="60" as="geometry"/>
        </mxCell>
        <mxCell id="dGBUTptpqReODm5c73dv-18" style="edgeStyle=orthogonalEdgeStyle;rounded=0;orthogonalLoop=1;jettySize=auto;html=1;exitX=0.5;exitY=1;exitDx=0;exitDy=0;entryX=0.5;entryY=0;entryDx=0;entryDy=0;" edge="1" parent="1" source="dGBUTptpqReODm5c73dv-5" target="dGBUTptpqReODm5c73dv-6">
          <mxGeometry relative="1" as="geometry"/>
        </mxCell>
        <mxCell id="dGBUTptpqReODm5c73dv-5" value="稍后重启" style="rounded=0;whiteSpace=wrap;html=1;" vertex="1" parent="1">
          <mxGeometry x="110" y="540" width="120" height="60" as="geometry"/>
        </mxCell>
        <mxCell id="dGBUTptpqReODm5c73dv-19" style="edgeStyle=orthogonalEdgeStyle;rounded=0;orthogonalLoop=1;jettySize=auto;html=1;exitX=0.5;exitY=1;exitDx=0;exitDy=0;entryX=0.45;entryY=0.033;entryDx=0;entryDy=0;entryPerimeter=0;" edge="1" parent="1" source="dGBUTptpqReODm5c73dv-6" target="dGBUTptpqReODm5c73dv-10">
          <mxGeometry relative="1" as="geometry"/>
        </mxCell>
        <mxCell id="dGBUTptpqReODm5c73dv-6" value="登陆设备检查srv_trx_conf文件里参数是否与请求参数一致" style="rounded=0;whiteSpace=wrap;html=1;" vertex="1" parent="1">
          <mxGeometry x="110" y="650" width="120" height="60" as="geometry"/>
        </mxCell>
        <mxCell id="dGBUTptpqReODm5c73dv-22" style="edgeStyle=orthogonalEdgeStyle;rounded=0;orthogonalLoop=1;jettySize=auto;html=1;exitX=0.5;exitY=1;exitDx=0;exitDy=0;" edge="1" parent="1" source="dGBUTptpqReODm5c73dv-7">
          <mxGeometry relative="1" as="geometry">
            <mxPoint x="340" y="620" as="targetPoint"/>
          </mxGeometry>
        </mxCell>
        <mxCell id="dGBUTptpqReODm5c73dv-7" value="立即重启" style="rounded=0;whiteSpace=wrap;html=1;" vertex="1" parent="1">
          <mxGeometry x="280" y="540" width="120" height="60" as="geometry"/>
        </mxCell>
        <mxCell id="dGBUTptpqReODm5c73dv-23" style="edgeStyle=orthogonalEdgeStyle;rounded=0;orthogonalLoop=1;jettySize=auto;html=1;entryX=0.5;entryY=0;entryDx=0;entryDy=0;" edge="1" parent="1" source="dGBUTptpqReODm5c73dv-8" target="dGBUTptpqReODm5c73dv-9">
          <mxGeometry relative="1" as="geometry"/>
        </mxCell>
        <mxCell id="dGBUTptpqReODm5c73dv-8" value="设备重启后" style="rounded=0;whiteSpace=wrap;html=1;" vertex="1" parent="1">
          <mxGeometry x="280" y="630" width="120" height="60" as="geometry"/>
        </mxCell>
        <mxCell id="dGBUTptpqReODm5c73dv-28" style="edgeStyle=orthogonalEdgeStyle;rounded=0;orthogonalLoop=1;jettySize=auto;html=1;exitX=0.5;exitY=1;exitDx=0;exitDy=0;" edge="1" parent="1" source="dGBUTptpqReODm5c73dv-9">
          <mxGeometry relative="1" as="geometry">
            <mxPoint x="250" y="880" as="targetPoint"/>
          </mxGeometry>
        </mxCell>
        <mxCell id="dGBUTptpqReODm5c73dv-9" value="登陆设备检查srv_trx_conf文件里参数是否与请求参数一致" style="rounded=0;whiteSpace=wrap;html=1;" vertex="1" parent="1">
          <mxGeometry x="280" y="720" width="120" height="70" as="geometry"/>
        </mxCell>
        <mxCell id="dGBUTptpqReODm5c73dv-26" style="edgeStyle=orthogonalEdgeStyle;rounded=0;orthogonalLoop=1;jettySize=auto;html=1;exitX=0.5;exitY=1;exitDx=0;exitDy=0;entryX=0.5;entryY=0;entryDx=0;entryDy=0;" edge="1" parent="1" source="dGBUTptpqReODm5c73dv-10" target="dGBUTptpqReODm5c73dv-13">
          <mxGeometry relative="1" as="geometry"/>
        </mxCell>
        <mxCell id="dGBUTptpqReODm5c73dv-10" value="还原srv_trx.conf文件" style="rounded=0;whiteSpace=wrap;html=1;" vertex="1" parent="1">
          <mxGeometry x="190" y="880" width="120" height="60" as="geometry"/>
        </mxCell>
        <mxCell id="dGBUTptpqReODm5c73dv-13" value="重启设备" style="rounded=0;whiteSpace=wrap;html=1;" vertex="1" parent="1">
          <mxGeometry x="190" y="970" width="120" height="60" as="geometry"/>
        </mxCell>
      </root>
    </mxGraphModel>
  </diagram>
</mxfile>
